<?xml version="1.0" encoding="utf-8"?>
<!-- Generator: Adobe Illustrator 16.0.0, SVG Export Plug-In . SVG Version: 6.00 Build 0)  -->
<!DOCTYPE svg PUBLIC "-//W3C//DTD SVG 1.1//EN" "http://www.w3.org/Graphics/SVG/1.1/DTD/svg11.dtd">
<svg version="1.1" id="Layer_1" xmlns="http://www.w3.org/2000/svg" xmlns:xlink="http://www.w3.org/1999/xlink" x="0px" y="0px"
	 width="164.409px" height="164.409px" viewBox="0 0 164.409 164.409" enable-background="new 0 0 164.409 164.409"
	 xml:space="preserve">
<title>goal</title>
<desc>Created with Sketch.</desc>
<g id="Page-1">
	<g id="Desktop-HD" transform="translate(-892.000000, -986.000000)">
		<g id="goal" transform="translate(892.000000, 986.000000)">
			<path id="Shape" fill="#94D41C" d="M133.465,45.213c-0.816-1.015-2.301-1.169-3.312-0.345c-1.012,0.821-1.164,2.312-0.344,3.328
				c8.811,10.908,13.664,24.667,13.664,38.742c0,33.93-27.484,61.533-61.268,61.533s-61.269-27.604-61.269-61.533
				c0-33.135,26.218-60.224,58.912-61.474v9.467c-27.495,1.242-49.486,24.092-49.486,52.007c0,28.711,23.256,52.066,51.843,52.066
				c28.586,0,51.842-23.355,51.842-52.066c0-14.105-5.523-27.313-15.555-37.187c-0.932-0.914-2.422-0.899-3.334,0.033
				c-0.91,0.933-0.896,2.433,0.035,3.346c9.119,8.977,14.141,20.985,14.141,33.808c0,26.1-21.143,47.334-47.13,47.334
				s-47.129-21.234-47.129-47.334c0-25.299,19.884-45.967,44.773-47.212v9.466C60.157,50.423,44.5,66.857,44.5,86.938
				c0,20.879,16.915,37.867,37.704,37.867c20.79,0,37.704-16.988,37.704-37.867c0-16.029-10.107-30.38-25.146-35.715
				c-1.232-0.435-2.572,0.21-3.006,1.444c-0.434,1.233,0.209,2.584,1.438,3.02c13.16,4.667,22.002,17.225,22.002,31.253
				c0,18.27-14.799,33.133-32.991,33.133c-18.192,0-32.991-14.863-32.991-33.133c0-17.472,13.543-31.792,30.634-33.014v9.466
				c-11.891,1.19-21.208,11.293-21.208,23.547c0,13.049,10.572,23.666,23.565,23.666s23.565-10.617,23.565-23.666
				c0-9.051-5.016-17.176-13.092-21.207c-1.166-0.587-2.58-0.104-3.158,1.067c-0.578,1.169-0.102,2.589,1.062,3.171
				c6.461,3.224,10.475,9.725,10.475,16.968c0,10.439-8.457,18.932-18.853,18.932c-10.395,0-18.852-8.492-18.852-18.932
				c0-9.639,7.21-17.6,16.496-18.771v9.639c-4.053,1.058-7.07,4.733-7.07,9.132c0,5.221,4.229,9.465,9.426,9.465
				c5.199,0,9.426-4.244,9.426-9.465c0-1.307-1.055-2.367-2.355-2.367s-2.355,1.061-2.355,2.367c0,2.609-2.115,4.732-4.715,4.732
				c-2.599,0-4.713-2.123-4.713-4.732c0-1.746,0.955-3.256,2.357-4.076v4.076c0,1.305,1.055,2.365,2.355,2.365
				s2.357-1.061,2.357-2.365V15.938h16.494v18.933h-9.426c-1.301,0-2.355,1.061-2.355,2.367s1.055,2.367,2.355,2.367h9.426v2.366
				c0,1.307,1.057,2.367,2.357,2.367h18.852c1.301,0,2.357-1.06,2.357-2.367V18.305c0-1.306-1.057-2.367-2.357-2.367h-9.426
				c-1.301,0-2.355,1.061-2.355,2.367s1.055,2.367,2.355,2.367h7.07v18.933h-14.141V13.571c0-1.306-1.055-2.367-2.355-2.367H82.205
				c-1.301,0-2.357,1.061-2.357,2.367v7.159c-35.295,1.255-63.625,30.462-63.625,66.208c0,36.539,29.6,66.268,65.982,66.268
				c36.381,0,65.98-29.729,65.98-66.268C148.186,71.781,142.959,56.961,133.465,45.213z"/>
		</g>
	</g>
</g>
</svg>
