<?xml version="1.0" encoding="utf-8"?>
<!-- Generator: Adobe Illustrator 16.0.0, SVG Export Plug-In . SVG Version: 6.00 Build 0)  -->
<!DOCTYPE svg PUBLIC "-//W3C//DTD SVG 1.1//EN" "http://www.w3.org/Graphics/SVG/1.1/DTD/svg11.dtd">
<svg version="1.1" id="Layer_1" xmlns="http://www.w3.org/2000/svg" xmlns:xlink="http://www.w3.org/1999/xlink" x="0px" y="0px"
	 width="2707.09px" height="402.042px" viewBox="0 0 2707.09 402.042" enable-background="new 0 0 2707.09 402.042"
	 xml:space="preserve">
<g id="Layer_1_1_">
	<path fill="none" stroke="#98C13B" stroke-width="32.079" stroke-linecap="round" d="M841.239,162.198c0,0,47-18.5,85,0
		c26.5,15,24,46.5,24,54.5v52"/>
	<path fill="none" stroke="#98C13B" stroke-width="32.079" stroke-linecap="round" d="M1108.739,157.198c0,0-43-18-67.5,13
		c-15.839,18.667-15.5,42.36-15.5,42.36v36.641c0,0-0.001,47,47.5,47c17.25,0,26-1.5,26-1.5"/>
	<path fill="none" stroke="#98C13B" stroke-width="32.079" stroke-linecap="round" d="M1139.573,188.865v119.167
		c0,0-0.196,8.563-1.482,14.004c-3.452,14.601-14.755,41.496-51.184,41.496c-35.668,0-56-16-56-16"/>
	
		<line fill="none" stroke="#98C13B" stroke-width="32.079" stroke-linecap="round" x1="1220.24" y1="153.976" x2="1220.24" y2="302.821"/>
	
		<line fill="none" stroke="#98C13B" stroke-width="32.079" stroke-linecap="round" x1="1771.239" y1="98.615" x2="1771.239" y2="98.532"/>
	
		<line fill="none" stroke="#98C13B" stroke-width="32.079" stroke-linecap="round" x1="1220.24" y1="98.615" x2="1220.24" y2="98.532"/>
	
		<line fill="none" stroke="#98C13B" stroke-width="32.079" stroke-linecap="round" x1="1771.239" y1="153.976" x2="1771.239" y2="302.821"/>
	<path fill="none" stroke="#98C13B" stroke-width="32.079" stroke-linecap="round" d="M1301.572,266.218
		c0,0-1.366-26.057-1.165-49.354c0.053-6.137,1.006-17.248,3.271-26.37c1.152-4.638,5.557-13.451,15.822-22.634
		c8.736-7.164,20.771-10.331,38.736-10.331c39.333,0,56,14.667,56,14.667"/>
	<path fill="none" stroke="#98C13B" stroke-width="32.079" stroke-linecap="round" d="M1326.905,300.533c0,0,23,8.666,50,5.666
		s37.334-16.334,37.334-16.334"/>
	<path fill="none" stroke="#98C13B" stroke-width="32.079" stroke-linecap="round" d="M1575.572,302.83V136.198
		c0,0-2.667-19.333,14-31.333"/>
	
		<line fill="none" stroke="#98C13B" stroke-width="32.079" stroke-linecap="round" x1="1631.239" y1="99.198" x2="1695.739" y2="99.198"/>
	
		<line fill="none" stroke="#98C13B" stroke-width="32.079" stroke-linecap="round" x1="1616.739" y1="197.198" x2="1687.739" y2="197.198"/>
	<path fill="none" stroke="#98C13B" stroke-width="32.079" stroke-linecap="round" d="M1851.239,96.698v163c0,0,0.674,38,46.338,46
		c27.664,2.528,41.162-5,41.162-5"/>
	
		<line fill="none" stroke="#98C13B" stroke-width="32.079" stroke-linecap="round" x1="1897.577" y1="156.698" x2="1940.739" y2="156.698"/>
	
		<line fill="none" stroke="#98C13B" stroke-width="32.079" stroke-linecap="round" x1="2002.989" y1="186.198" x2="2002.989" y2="302.699"/>
	<path fill="none" stroke="#98C13B" stroke-width="32.079" stroke-linecap="round" d="M2035.907,156.698
		c0,0,22.909-1.815,40.85-0.46c11.982,0,22.537,7.129,28.923,13.513c8.596,9.007,13.521,21.166,13.896,31.707
		c0.666,18.741,0,101.241,0,101.241"/>
	<path fill="none" stroke="#98C13B" stroke-width="32.079" stroke-linecap="round" d="M2239.907,227.966h46.666
		c0,0,27.668-0.768,27.668-29.101c0-28.333-28.666-45-54-45s-61.75,10.333-61.75,50.667c0,38,0,48.666,0,48.666
		s0,49.75,49.75,53.334c30.248,3.166,43.748-3.334,61.332-16.334"/>
	<path fill="none" stroke="#98C13B" stroke-width="32.079" stroke-linecap="round" d="M2417.489,153.115c0,0,35-4.167,57,5.333"/>
	<path fill="none" stroke="#98C13B" stroke-width="32.079" stroke-linecap="round" d="M2385.739,184.198
		c0,0-0.697,22.299,20.598,34.903c7.236,4.598,20.008,6.546,26.715,7.884c9.146,1.824,22.199,5.302,32.818,11.548
		c12.203,8.166,19.203,20,17.248,34.981c-0.396,2.866-1.063,5.959-2.068,9.276c-4.305,11.021-14.312,23.11-37.477,23.739
		c-43,1.166-64.334-12.584-64.334-12.584"/>
	<path fill="none" stroke="#98C13B" stroke-width="32.079" stroke-linecap="round" d="M2583.993,153.115c0,0,34.246-6.25,57,5.333"
		/>
	<path fill="none" stroke="#98C13B" stroke-width="32.079" stroke-linecap="round" d="M2552.243,184.198
		c0,0-2.754,22.75,20.596,34.903c7.238,4.598,20.01,6.546,26.717,7.884c9.146,1.824,22.199,5.302,32.818,11.548
		c12.203,8.166,19.203,20,17.246,34.981c-0.396,2.866-1.062,5.959-2.068,9.276c-4.305,11.021-14.311,23.11-37.475,23.739
		c-43,1.166-64.334-12.584-64.334-12.584"/>
</g>
<g id="Layer_2">
	<path fill="none" stroke="#98C13B" stroke-width="32.079" stroke-linecap="round" d="M579.282,302.821c0,0,0-143.209,0-169.273
		c0.003-27.094,5.633-35.103,16.517-35.103c17.187,0,22.521,28.606,23.885,33.897c8.988,34.847,22.229,85.509,22.229,85.509"/>
	<path fill="none" stroke="#98C13B" stroke-width="32.079" stroke-linecap="round" d="M670.936,256.996
		c0,0,8.639-7.463,13.854-23.336c11.007-33.185,34.597-105.901,38.85-119.875c7.64-21.769,33.228-19.097,33.228,0
		c0,19.095,0,189.036,0,189.036"/>
	<path fill="#00B4CF" d="M187.146,251.04"/>
	<path fill="none" stroke="#98C13B" stroke-width="32.079" stroke-linecap="round" d="M905.906,305.615
		c-33.166,0-57.569-10.222-66.229-28.39c-3.784-9.242-3.833-14.929-3.589-20.692c0.057-1.305,0.278-7.117,2.87-15.23
		c0.653-2.045,3.113-9.188,11.229-16.514c6.093-5.049,14.014-9.043,23.428-11.888c8.539-2.286,18.623-1.563,32.29,0.048"/>
	<path fill="none" stroke="#98C13B" stroke-width="32.079" stroke-linecap="round" d="M384.034,158.253
		c22.784,93.267-34.354,187.344-127.619,210.13c-93.267,22.783-187.344-34.352-210.13-127.619
		C23.5,147.496,80.636,53.419,173.905,30.633c48.528-11.855,97.282-2.072,136.091,23.183"/>
	<path fill="none" stroke="#FFFFFF" stroke-width="40" stroke-linecap="round" stroke-linejoin="round" stroke-miterlimit="10" d="
		M327.075,340.049"/>
	<path fill="none" stroke="#FFFFFF" stroke-width="40" stroke-linecap="round" stroke-linejoin="round" stroke-miterlimit="10" d="
		M274.409,263.077"/>
	<path fill="none" stroke="#FFFFFF" stroke-width="40" stroke-linecap="round" stroke-linejoin="round" stroke-miterlimit="10" d="
		M227.978,373.738"/>
	
		<line fill="none" stroke="#98C13B" stroke-width="32.079" stroke-linecap="round" x1="211.616" y1="284.327" x2="355.07" y2="95.633"/>
	<path fill="none" stroke="#98C13B" stroke-width="32.079" stroke-linecap="round" d="M169.848,232.264l70.557-90.666"/>
	
		<line fill="none" stroke="#98C13B" stroke-width="32.079" stroke-linecap="round" x1="153.684" y1="155.137" x2="131.065" y2="185.225"/>
	<path fill="none" stroke="#98C13B" stroke-width="32.079" stroke-linecap="round" d="M377.601,134.292"/>
</g>
</svg>
