<?xml version="1.0" encoding="utf-8"?>
<!-- Generator: Adobe Illustrator 16.0.0, SVG Export Plug-In . SVG Version: 6.00 Build 0)  -->
<!DOCTYPE svg PUBLIC "-//W3C//DTD SVG 1.1//EN" "http://www.w3.org/Graphics/SVG/1.1/DTD/svg11.dtd">
<svg version="1.1" id="Layer_1" xmlns="http://www.w3.org/2000/svg" xmlns:xlink="http://www.w3.org/1999/xlink" x="0px" y="0px"
	 width="164.409px" height="164.409px" viewBox="0 0 164.409 164.409" enable-background="new 0 0 164.409 164.409"
	 xml:space="preserve">
<title>mobile-payment</title>
<desc>Created with Sketch.</desc>
<g id="Page-1">
	<g id="Desktop-HD" transform="translate(-454.000000, -980.000000)">
		<g id="mobile-payment" transform="translate(454.000000, 980.000000)">
			<path id="Shape" fill="#94D41C" d="M77.104,87.305c-3.922,0-7.489,1.494-10.2,3.928V74.555c0-4.218-3.433-7.65-7.65-7.65h-35.7
				c-4.218,0-7.65,3.432-7.65,7.65v20.869c-0.801-0.285-1.653-0.469-2.55-0.469c-4.218,0-7.65,3.432-7.65,7.65
				c0,1.965,0.768,3.742,1.989,5.1c-1.221,1.355-1.989,3.133-1.989,5.1s0.768,3.744,1.989,5.1c-1.221,1.357-1.989,3.135-1.989,5.1
				c0,1.967,0.768,3.744,1.989,5.102c-1.221,1.355-1.989,3.133-1.989,5.1c0,4.217,3.432,7.65,7.65,7.65
				c0.897,0,1.75-0.184,2.55-0.471v0.471c0,4.217,3.432,7.648,7.65,7.648h5.1v10.201h5.1v-10.201h25.5
				c4.218,0,7.65-3.432,7.65-7.648v-30.602v-7.648c0-4.744,3.253-8.742,7.65-9.879v65.979h5.1v-68.85
				C79.654,88.447,78.515,87.305,77.104,87.305z M13.354,135.754c-1.408,0-2.55-1.145-2.55-2.549c0-1.406,1.142-2.551,2.55-2.551
				s2.55,1.145,2.55,2.551C15.905,134.609,14.762,135.754,13.354,135.754z M13.354,125.555c-1.408,0-2.55-1.145-2.55-2.551
				c0-1.404,1.142-2.549,2.55-2.549s2.55,1.145,2.55,2.549C15.905,124.41,14.762,125.555,13.354,125.555z M13.354,115.355
				c-1.408,0-2.55-1.146-2.55-2.551s1.142-2.551,2.55-2.551s2.55,1.146,2.55,2.551S14.762,115.355,13.354,115.355z M13.354,105.154
				c-1.408,0-2.55-1.145-2.55-2.549c0-1.406,1.142-2.551,2.55-2.551s2.55,1.145,2.55,2.551
				C15.905,104.01,14.762,105.154,13.354,105.154z M61.805,140.855c0,1.404-1.143,2.549-2.55,2.549h-35.7
				c-1.408,0-2.55-1.145-2.55-2.549v-5.102h40.8V140.855z M61.805,102.605v7.648v20.4h-40.8v-45.9h40.8V102.605z M61.805,79.654
				h-40.8v-5.1c0-1.405,1.143-2.55,2.55-2.55h35.7c1.408,0,2.55,1.145,2.55,2.55V79.654z"/>
			<path id="Shape_1_" fill="#94D41C" d="M115.355,5.705c-23.904,0-43.351,19.446-43.351,43.35s19.447,43.35,43.351,43.35
				c23.902,0,43.35-19.446,43.35-43.35S139.258,5.705,115.355,5.705z M115.355,87.305c-21.092,0-38.251-17.159-38.251-38.25
				c0-21.091,17.159-38.25,38.251-38.25c21.09,0,38.25,17.159,38.25,38.25C153.605,70.146,136.445,87.305,115.355,87.305z"/>
			<path id="Shape_2_" fill="#94D41C" d="M115.355,15.905c-18.279,0-33.15,14.872-33.15,33.15s14.871,33.15,33.15,33.15
				c18.277,0,33.148-14.872,33.148-33.15S133.633,15.905,115.355,15.905z M115.355,77.104c-15.467,0-28.051-12.584-28.051-28.05
				s12.584-28.05,28.051-28.05c15.465,0,28.049,12.584,28.049,28.05S130.82,77.104,115.355,77.104z"/>
			<path id="Shape_3_" fill="#94D41C" d="M117.904,46.504h-5.1c-2.812,0-5.1-2.287-5.1-5.1c0-2.813,2.287-5.1,5.1-5.1h5.1
				c2.812,0,5.1,2.287,5.1,5.1h5.102c0-5.625-4.576-10.2-10.201-10.2v-5.1h-5.1v5.1c-5.625,0-10.199,4.575-10.199,10.2
				c0,5.625,4.574,10.2,10.199,10.2h5.1c2.812,0,5.1,2.288,5.1,5.1s-2.287,5.1-5.1,5.1h-5.1c-2.812,0-5.1-2.288-5.1-5.1h-5.1
				c0,5.625,4.574,10.2,10.199,10.2v5.1h5.1v-5.1c5.625,0,10.201-4.575,10.201-10.2S123.529,46.504,117.904,46.504z"/>
			<rect id="Rectangle-path" x="92.404" y="46.504" fill="#94D41C" width="5.1" height="5.1"/>
			<rect id="Rectangle-path_1_" x="133.205" y="46.504" fill="#94D41C" width="5.1" height="5.1"/>
			<rect id="Rectangle-path_2_" x="41.405" y="36.305" fill="#94D41C" width="5.1" height="5.1"/>
			<rect id="Rectangle-path_3_" x="51.604" y="36.305" fill="#94D41C" width="5.1" height="5.1"/>
			<rect id="Rectangle-path_4_" x="61.805" y="36.305" fill="#94D41C" width="5.1" height="5.1"/>
			<rect id="Rectangle-path_5_" x="31.205" y="36.305" fill="#94D41C" width="5.1" height="5.1"/>
			<rect id="Rectangle-path_6_" x="31.205" y="46.504" fill="#94D41C" width="5.1" height="5.1"/>
			<rect id="Rectangle-path_7_" x="31.205" y="56.705" fill="#94D41C" width="5.1" height="5.1"/>
			<rect id="Rectangle-path_8_" x="94.955" y="133.205" fill="#94D41C" width="5.1" height="5.1"/>
			<rect id="Rectangle-path_9_" x="84.754" y="133.205" fill="#94D41C" width="5.102" height="5.1"/>
			<rect id="Rectangle-path_10_" x="105.154" y="133.205" fill="#94D41C" width="5.1" height="5.1"/>
			<rect id="Rectangle-path_11_" x="115.355" y="133.205" fill="#94D41C" width="5.1" height="5.1"/>
			<rect id="Rectangle-path_12_" x="125.555" y="133.205" fill="#94D41C" width="5.1" height="5.1"/>
			<rect id="Rectangle-path_13_" x="135.754" y="133.205" fill="#94D41C" width="5.102" height="5.1"/>
			<rect id="Rectangle-path_14_" x="135.754" y="123.004" fill="#94D41C" width="5.102" height="5.102"/>
			<rect id="Rectangle-path_15_" x="135.754" y="112.805" fill="#94D41C" width="5.102" height="5.1"/>
			<rect id="Rectangle-path_16_" x="135.754" y="102.605" fill="#94D41C" width="5.102" height="5.1"/>
			<rect id="Rectangle-path_17_" x="135.754" y="92.404" fill="#94D41C" width="5.102" height="5.1"/>
			<path id="Shape_4_" fill="#94D41C" d="M52.352,95.701l-13.497,13.498l-5.847-5.848l-3.605,3.605l7.65,7.65
				c0.497,0.498,1.15,0.748,1.803,0.748s1.306-0.25,1.803-0.748l15.3-15.299L52.352,95.701z"/>
		</g>
	</g>
</g>
</svg>
