<?xml version="1.0" encoding="utf-8"?>
<!-- Generator: Adobe Illustrator 16.0.0, SVG Export Plug-In . SVG Version: 6.00 Build 0)  -->
<!DOCTYPE svg PUBLIC "-//W3C//DTD SVG 1.1//EN" "http://www.w3.org/Graphics/SVG/1.1/DTD/svg11.dtd">
<svg version="1.1" id="Layer_1" xmlns="http://www.w3.org/2000/svg" xmlns:xlink="http://www.w3.org/1999/xlink" x="0px" y="0px"
	 width="164.409px" height="164.409px" viewBox="0 0 164.409 164.409" enable-background="new 0 0 164.409 164.409"
	 xml:space="preserve">
<title>gps</title>
<desc>Created with Sketch.</desc>
<g id="Page-1">
	<g id="Desktop-HD" transform="translate(-1338.000000, -997.000000)">
		<g id="gps" transform="translate(1338.000000, 997.000000)">
			<path id="Shape" fill="#94D41C" d="M108.266,19.327h-52.37c-5.157,0-9.352,4.189-9.352,9.338v9.587v80.931v16.56
				c0,5.149,4.195,9.339,9.352,9.339h52.37c5.156,0,9.352-4.189,9.352-9.339v-16.56V38.252v-9.587
				C117.617,23.516,113.422,19.327,108.266,19.327z M113.875,135.743c0,3.09-2.516,5.604-5.611,5.604H55.896
				c-3.094,0-5.611-2.514-5.611-5.604v-16.56h63.591V135.743z M113.875,115.448H50.284v-73.46h63.591V115.448z M113.875,38.252
				H50.284v-9.587c0-3.09,2.517-5.603,5.611-5.603h52.37c3.094,0,5.609,2.513,5.609,5.603V38.252L113.875,38.252z"/>
			<path id="Shape_1_" fill="#94D41C" d="M82.205,122.421c-4.125,0-7.482,3.352-7.482,7.471s3.357,7.471,7.482,7.471
				s7.48-3.352,7.48-7.471S86.33,122.421,82.205,122.421z M82.205,133.626c-2.062,0-3.741-1.675-3.741-3.734
				c0-2.061,1.679-3.735,3.741-3.735s3.74,1.675,3.74,3.735C85.945,131.951,84.268,133.626,82.205,133.626z"/>
			<rect id="Rectangle-path" x="66.369" y="29.288" fill="#94D41C" width="23.941" height="3.735"/>
			<rect id="Rectangle-path_1_" x="94.051" y="29.288" fill="#94D41C" width="3.74" height="3.735"/>
			<path id="Shape_2_" fill="#94D41C" d="M60.541,86.478l24.836-4.886l12.119,21.192V54.286L60.541,86.478z M93.756,88.71
				L93.756,88.71l-6.463-11.302l-13.757,2.706l20.22-17.613V88.71z"/>
			<rect id="Rectangle-path_2_" x="124.475" y="80.586" fill="#94D41C" width="3.74" height="3.735"/>
			<rect id="Rectangle-path_3_" x="131.955" y="80.586" fill="#94D41C" width="3.74" height="3.735"/>
			<rect id="Rectangle-path_4_" x="139.438" y="80.586" fill="#94D41C" width="3.74" height="3.735"/>
			<rect id="Rectangle-path_5_" x="28.713" y="80.586" fill="#94D41C" width="3.741" height="3.735"/>
			<rect id="Rectangle-path_6_" x="21.232" y="80.586" fill="#94D41C" width="3.741" height="3.735"/>
			<rect id="Rectangle-path_7_" x="36.195" y="80.586" fill="#94D41C" width="3.74" height="3.735"/>
		</g>
	</g>
</g>
</svg>
