<?xml version="1.0" encoding="utf-8"?>
<!-- Generator: Adobe Illustrator 16.0.0, SVG Export Plug-In . SVG Version: 6.00 Build 0)  -->
<!DOCTYPE svg PUBLIC "-//W3C//DTD SVG 1.1//EN" "http://www.w3.org/Graphics/SVG/1.1/DTD/svg11.dtd">
<svg version="1.1" id="Layer_1" xmlns="http://www.w3.org/2000/svg" xmlns:xlink="http://www.w3.org/1999/xlink" x="0px" y="0px"
	 width="198.75px" height="28px" viewBox="0 0 198.75 28" enable-background="new 0 0 198.75 28" xml:space="preserve">
<title>Page 1</title>
<desc>Created with Sketch.</desc>
<g id="Page-1_1_">
	<g id="Desktop-HD" transform="translate(-281.000000, -33.000000)">
		<g id="Page-1" transform="translate(281.000000, 33.000000)">
			<path id="Fill-1" fill="#94D41C" d="M194.6,13.536l-0.073-0.047c-1.177-0.692-2.575-1.067-3.541-1.259
				c-0.084-0.017-0.178-0.035-0.278-0.054c-0.443-0.084-1.363-0.258-1.712-0.479l-0.04-0.025c-0.865-0.512-1.104-1.282-1.168-1.689
				c-0.012-0.074-0.016-0.248-0.016-0.281c0-0.834-0.677-1.51-1.511-1.51s-1.51,0.676-1.51,1.51c0,0.239,0.021,0.382,0.033,0.502
				c0.13,1.18,0.78,2.942,2.622,4.042c0.832,0.521,1.98,0.737,2.741,0.882c0.091,0.017,0.175,0.033,0.25,0.048
				c1.024,0.204,1.933,0.517,2.567,0.881c0.951,0.652,0.986,1.34,0.926,1.803c-0.025,0.184-0.067,0.377-0.125,0.575
				c-0.214,0.519-0.68,1.177-2.13,1.216c-1.796,0.049-3.113-0.213-3.9-0.441c-0.849-0.245-1.281-0.506-1.285-0.508l0.016,0.01
				l-0.001,0.002c-0.234-0.15-0.514-0.239-0.812-0.239c-0.834,0-1.51,0.676-1.51,1.51c0,0.599,0.348,1.114,0.854,1.358
				c0.033,0.018,0.258,0.127,0.354,0.174c0.869,0.42,2.807,1.145,5.84,1.145c0.172,0,0.349-0.002,0.527-0.007
				c3.189-0.087,4.42-2.028,4.869-3.179l0.037-0.11c0.113-0.37,0.195-0.74,0.244-1.098l0.002-0.013
				C197.117,16.356,196.311,14.681,194.6,13.536"/>
			<path id="Fill-6" fill="#94D41C" d="M36.241,19.111c-0.83,0-1.502-0.673-1.502-1.502v-4.87c0-0.058,0.001-0.127,0.003-0.208
				c0.023-1.332-0.132-2.794-1.449-3.566c-2.9-1.379-6.674,0.055-6.712,0.07c-0.772,0.299-1.643-0.082-1.944-0.854
				s0.077-1.64,0.847-1.943c0.205-0.081,5.062-1.951,9.167,0.047l0.083,0.043c1.323,0.749,2.257,1.952,2.701,3.48
				c0.339,1.165,0.32,2.253,0.311,2.776c-0.001,0.06-0.002,0.111-0.002,0.154v4.87C37.743,18.438,37.07,19.111,36.241,19.111"/>
			<path id="Fill-8" fill="#94D41C" d="M47.759,21.687c-2.389,0-4.247-1.075-5.232-3.025c-0.698-1.38-0.718-2.729-0.718-2.878V12.36
				c-0.003-0.342,0.037-2.844,1.792-4.927c1.25-1.568,3.064-2.345,5.251-2.246c1.516,0.069,2.684,0.542,2.812,0.595
				c0.766,0.32,1.126,1.2,0.806,1.965c-0.319,0.763-1.196,1.124-1.959,0.808c-0.139-0.057-3.025-1.192-4.569,0.761l-0.033,0.041
				c-1.088,1.282-1.095,2.957-1.095,2.973l0,0.022v3.421c0.001,0.053,0.03,0.857,0.431,1.603c0.48,0.892,1.279,1.307,2.515,1.307
				c1.435,0,2.18-0.119,2.187-0.12c0.818-0.141,1.591,0.41,1.731,1.227c0.14,0.818-0.412,1.596-1.23,1.735
				C50.351,21.541,49.453,21.687,47.759,21.687"/>
			<path id="Fill-12" fill="#94D41C" d="M61.525,22.307c-0.83,0-1.502-0.672-1.502-1.502V6.866c0-0.83,0.672-1.502,1.502-1.502
				s1.502,0.672,1.502,1.502v13.939C63.027,21.635,62.354,22.307,61.525,22.307"/>
			<path id="Fill-18" fill="#94D41C" d="M113.124,3.18c-0.83,0-1.502-0.668-1.502-1.498V1.674c0-0.83,0.672-1.502,1.502-1.502
				s1.502,0.672,1.502,1.502S113.953,3.18,113.124,3.18"/>
			<path id="Fill-20" fill="#94D41C" d="M61.525,3.18c-0.83,0-1.502-0.668-1.502-1.498V1.674c0-0.83,0.672-1.502,1.502-1.502
				s1.502,0.672,1.502,1.502S62.354,3.18,61.525,3.18"/>
			<path id="Fill-22" fill="#94D41C" d="M113.124,22.307c-0.83,0-1.502-0.672-1.502-1.502V6.866c0-0.83,0.672-1.502,1.502-1.502
				s1.502,0.672,1.502,1.502v13.939C114.625,21.635,113.953,22.307,113.124,22.307"/>
			<path id="Fill-24" fill="#94D41C" d="M75.115,22.682c-2.281,0-4.044-0.653-4.131-0.686c-0.776-0.293-1.168-1.159-0.876-1.936
				c0.292-0.775,1.156-1.167,1.931-0.877c0.039,0.014,1.889,0.678,3.991,0.444c1.785-0.198,2.475-0.96,2.503-0.991
				c-0.019,0.021-0.028,0.034-0.028,0.034l2.374,1.841c-0.139,0.179-1.445,1.761-4.517,2.102
				C75.935,22.661,75.517,22.682,75.115,22.682"/>
			<path id="Fill-26" fill="#94D41C" d="M94.8,22.307c-0.83,0-1.502-0.672-1.502-1.502V5.287c-0.103-1.041,0.193-2.985,1.936-4.239
				c0.673-0.484,1.612-0.332,2.097,0.341s0.332,1.612-0.341,2.097c-0.742,0.534-0.711,1.37-0.699,1.521l0.021,0.118l-0.008,0.077
				v15.604C96.302,21.635,95.629,22.307,94.8,22.307"/>
			<path id="Fill-28" fill="#94D41C" d="M106.053,3.238h-6.04c-0.83,0-1.502-0.672-1.502-1.502s0.673-1.502,1.502-1.502h6.04
				c0.83,0,1.502,0.672,1.502,1.502S106.883,3.238,106.053,3.238"/>
			<path id="Fill-30" fill="#94D41C" d="M105.304,12.416h-6.649c-0.83,0-1.502-0.672-1.502-1.502s0.672-1.502,1.502-1.502h6.649
				c0.829,0,1.502,0.672,1.502,1.502S106.133,12.416,105.304,12.416"/>
			<path id="Fill-32" fill="#94D41C" d="M128.996,8.623h-4.042c-0.829,0-1.502-0.673-1.502-1.502s0.673-1.502,1.502-1.502h4.042
				c0.83,0,1.502,0.672,1.502,1.502S129.826,8.623,128.996,8.623"/>
			<path id="Fill-34" fill="#94D41C" d="M134.826,22.295c-0.83,0-1.502-0.672-1.502-1.502V9.883c0-0.83,0.672-1.502,1.502-1.502
				c0.829,0,1.502,0.672,1.502,1.502v10.91C136.328,21.623,135.655,22.295,134.826,22.295"/>
			<path id="Fill-38" fill="#94D41C" d="M145.744,22.295h-0.013c-0.829-0.006-1.497-0.685-1.49-1.514
				c0.001-0.077,0.062-7.713,0.001-9.416c-0.023-0.661-0.366-1.434-0.875-1.973c-0.399-0.395-1.035-0.813-1.633-0.813l-0.113-0.004
				c-1.541-0.117-3.574,0.041-3.594,0.042c-0.829,0.064-1.551-0.552-1.616-1.379c-0.065-0.827,0.552-1.55,1.378-1.616
				c0.092-0.007,2.24-0.174,4.006-0.047c1.833,0.025,3.202,1.198,3.709,1.705l0.025,0.025c1.023,1.074,1.666,2.551,1.715,3.953
				c0.063,1.768,0.004,9.229,0.002,9.546C147.238,21.631,146.567,22.295,145.744,22.295"/>
			<path id="Fill-40" fill="#94D41C" d="M159.088,22.727c-0.441,0-0.915-0.025-1.428-0.078c-2.426-0.182-4.306-1.412-5.297-3.467
				c-0.711-1.473-0.732-2.869-0.732-3.023V11.6c0-2.211,0.938-3.962,2.711-5.064c1.656-1.029,3.576-1.182,4.574-1.182
				c3.154,0,6.559,2.186,6.559,5.716c0,3.019-2.422,4.182-4.051,4.228h-0.041h-4.371c-0.829,0-1.502-0.672-1.502-1.502
				c0-0.83,0.673-1.502,1.502-1.502h4.325c0.12-0.011,0.427-0.065,0.679-0.217c0.225-0.136,0.455-0.362,0.455-1.007
				c0-1.77-2.064-2.712-3.555-2.712c-1.152,0-2.242,0.266-2.988,0.73c-0.881,0.548-1.292,1.346-1.292,2.513v4.549
				c0.001,0.053,0.03,0.94,0.471,1.803c0.535,1.048,1.449,1.604,2.794,1.702l0.049,0.004c2.378,0.249,3.297-0.211,4.693-1.244
				c0.668-0.492,1.607-0.352,2.102,0.315c0.492,0.667,0.352,1.607-0.315,2.101C162.805,22.031,161.379,22.727,159.088,22.727"/>
			<path id="Fill-42" fill="#94D41C" d="M178.979,8.787c-0.198,0-0.4-0.04-0.594-0.124c-1.379-0.595-3.819-0.476-4.565-0.387
				c-0.823,0.098-1.571-0.49-1.669-1.314s0.49-1.571,1.314-1.669c0.037-0.005,0.932-0.109,2.092-0.095
				c1.629,0.021,2.98,0.258,4.019,0.707c0.761,0.329,1.112,1.213,0.783,1.974C180.113,8.448,179.561,8.787,178.979,8.787"/>
			<path id="Fill-44" fill="#94D41C" d="M194.57,8.787c-0.229,0-0.461-0.053-0.68-0.164c-1.363-0.694-3.631-0.495-4.39-0.359
				c-0.815,0.145-1.597-0.396-1.743-1.212c-0.147-0.815,0.392-1.595,1.207-1.744c0.379-0.069,3.777-0.64,6.289,0.639
				c0.738,0.376,1.033,1.28,0.656,2.02C195.645,8.487,195.117,8.787,194.57,8.787"/>
			<g id="Group-48" transform="translate(0.000000, 0.085498)">
				<g id="Clip-47">
				</g>
				<defs>
					<filter id="Adobe_OpacityMaskFilter" filterUnits="userSpaceOnUse" x="0" y="0.078" width="8.87" height="22.143">
						<feColorMatrix  type="matrix" values="1 0 0 0 0  0 1 0 0 0  0 0 1 0 0  0 0 0 1 0"/>
					</filter>
				</defs>
				<mask maskUnits="userSpaceOnUse" x="0" y="0.078" width="8.87" height="22.143" id="mask-4">
					<g filter="url(#Adobe_OpacityMaskFilter)">
						<polygon id="path-3" fill="#FFFFFF" points="0,22.221 0,0.078 8.87,0.078 8.87,22.221 						"/>
					</g>
				</mask>
				<path id="Fill-46" mask="url(#mask-4)" fill="#94D41C" d="M1.502,22.221C0.672,22.221,0,21.549,0,20.719V4.868
					c0-1.52,0.172-2.532,0.557-3.282c0.5-0.972,1.384-1.508,2.492-1.508c0.699,0,2.008,0.266,2.928,2.049
					c0.427,0.828,0.635,1.71,0.735,2.133C6.723,4.309,6.732,4.349,6.74,4.379c0.832,3.224,2.068,7.956,2.081,8.003
					c0.21,0.803-0.271,1.623-1.073,1.833c-0.803,0.21-1.624-0.271-1.833-1.073c-0.013-0.048-1.25-4.784-2.083-8.012
					C3.819,5.084,3.805,5.024,3.788,4.951C3.54,3.9,3.292,3.428,3.14,3.221C3.075,3.486,3.004,3.98,3.004,4.868v15.852
					C3.004,21.549,2.332,22.221,1.502,22.221"/>
			</g>
			<path id="Fill-49" fill="#94D41C" d="M32.089,22.568c-3.739,0-6.493-1.281-7.558-3.515l-0.034-0.077
				c-0.464-1.135-0.475-1.892-0.447-2.57c0.032-0.727,0.202-1.391,0.339-1.82c0.256-0.801,0.767-1.563,1.476-2.204l0.048-0.042
				c0.723-0.599,1.637-1.068,2.718-1.395l0.046-0.013c1.102-0.295,2.276-0.191,3.588-0.037c0.824,0.097,1.413,0.844,1.316,1.667
				c-0.097,0.824-0.844,1.414-1.667,1.316c-1.141-0.134-1.909-0.186-2.439-0.05c-0.67,0.205-1.215,0.476-1.62,0.803
				c-0.417,0.385-0.561,0.734-0.604,0.868c-0.115,0.36-0.186,0.726-0.199,1.028c-0.016,0.377-0.029,0.674,0.208,1.266
				c0.552,1.093,2.396,1.77,4.83,1.77c0.83,0,1.502,0.672,1.502,1.502C33.591,21.896,32.918,22.568,32.089,22.568"/>
			<path id="Fill-51" fill="#94D41C" d="M179.008,13.536l-0.074-0.047c-1.176-0.692-2.574-1.067-3.541-1.259
				c-0.084-0.017-0.178-0.035-0.278-0.054c-0.442-0.084-1.362-0.258-1.712-0.479l-0.04-0.025c-0.865-0.512-1.103-1.282-1.168-1.689
				c-0.012-0.074-0.016-0.248-0.016-0.281c0-0.834-0.677-1.51-1.511-1.51s-1.51,0.676-1.51,1.51c0,0.239,0.021,0.382,0.033,0.502
				c0.131,1.18,0.78,2.942,2.622,4.042c0.833,0.521,1.98,0.737,2.741,0.882c0.092,0.017,0.176,0.033,0.251,0.048
				c1.023,0.204,1.933,0.517,2.567,0.881c0.95,0.652,0.985,1.34,0.926,1.803c-0.025,0.184-0.068,0.377-0.125,0.575
				c-0.215,0.519-0.68,1.177-2.13,1.216c-1.797,0.049-3.114-0.213-3.901-0.441c-0.848-0.245-1.281-0.506-1.285-0.508l0.016,0.01
				v0.002c-0.235-0.15-0.514-0.239-0.812-0.239c-0.834,0-1.511,0.676-1.511,1.51c0,0.599,0.349,1.114,0.854,1.358
				c0.034,0.018,0.258,0.127,0.354,0.174c0.869,0.42,2.807,1.145,5.84,1.145c0.172,0,0.348-0.002,0.527-0.007
				c3.189-0.087,4.419-2.028,4.868-3.179l0.038-0.11c0.112-0.37,0.194-0.74,0.244-1.098l0.002-0.013
				C181.525,16.356,180.719,14.681,179.008,13.536"/>
			<path id="Fill-53" fill="#94D41C" d="M17.274,0.206c-1.286-0.219-2.983,0.438-3.671,2.399l-0.02,0.06
				c-0.38,1.248-2.549,7.941-3.628,11.194c-0.338,1.028-0.851,1.516-0.873,1.536c0.013-0.012,0.021-0.018,0.021-0.018l0,0
				C8.795,15.652,8.6,16.051,8.6,16.496c0,0.83,0.672,1.503,1.502,1.503c0.367,0,0.703-0.132,0.964-0.351l0.001,0.002
				c0.115-0.1,1.141-1.024,1.741-2.85c0.991-2.987,3.199-9.789,3.639-11.226c0.058-0.156,0.125-0.255,0.184-0.316v17.545
				c0,0.83,0.672,1.502,1.502,1.502s1.502-0.672,1.502-1.502V3.102C19.634,1.633,18.664,0.442,17.274,0.206"/>
			<g id="Group-57" transform="translate(42.327759, 8.607237)">
				<g id="Clip-56">
				</g>
				<defs>
					<filter id="Adobe_OpacityMaskFilter_1_" filterUnits="userSpaceOnUse" x="0.011" y="0.024" width="13.134" height="19.361">
						<feColorMatrix  type="matrix" values="1 0 0 0 0  0 1 0 0 0  0 0 1 0 0  0 0 0 1 0"/>
					</filter>
				</defs>
				<mask maskUnits="userSpaceOnUse" x="0.011" y="0.024" width="13.134" height="19.361" id="mask-6">
					<g filter="url(#Adobe_OpacityMaskFilter_1_)">
						<polygon id="path-5" fill="#FFFFFF" points="13.145,19.385 0.011,19.385 0.011,0.024 13.145,0.024 						"/>
					</g>
				</mask>
				<path id="Fill-55" mask="url(#mask-6)" fill="#94D41C" d="M11.643,0.024c-0.83,0-1.502,0.673-1.502,1.502v11.141
					c-0.007,0.264-0.042,0.746-0.099,0.983c-0.428,1.812-1.549,2.73-3.331,2.73c-1.141,0-2.213-0.198-3.188-0.589
					c-0.734-0.294-1.136-0.595-1.14-0.598l0.012,0.009l-0.002,0.003c-0.248-0.18-0.551-0.287-0.88-0.287
					c-0.83,0-1.502,0.673-1.502,1.502c0,0.44,0.191,0.837,0.493,1.111c0.011,0.011,0.068,0.06,0.076,0.065
					c0.041,0.031,0.083,0.061,0.126,0.089c0.595,0.409,2.725,1.698,6.005,1.698c3.17,0,5.508-1.885,6.254-5.043
					c0.149-0.631,0.175-1.462,0.179-1.622l0-11.194C13.145,0.696,12.473,0.024,11.643,0.024"/>
			</g>
			<path id="Fill-58" fill="#94D41C" d="M81.113,19.704c0,0.829-0.672,1.502-1.502,1.502s-1.502-0.673-1.502-1.502
				s0.672-1.502,1.502-1.502S81.113,18.875,81.113,19.704"/>
			<path id="Fill-60" fill="#94D41C" d="M80.679,7.451l0.005-0.006c-0.02-0.018-0.056-0.048-0.108-0.089
				c-0.044-0.038-0.091-0.072-0.14-0.104c-0.654-0.467-2.548-1.555-5.988-1.555c-2.064,0-3.477,0.403-4.58,1.308l-0.049,0.042
				c-1.42,1.27-1.828,2.435-1.938,2.876c-0.233,0.94-0.344,2.093-0.351,2.819c-0.019,2.202,0.105,4.611,0.111,4.713
				c0.042,0.803,0.705,1.424,1.499,1.424c0.026,0,0.053-0.001,0.08-0.002c0.829-0.043,1.465-0.75,1.421-1.578
				c-0.001-0.024-0.125-2.42-0.107-4.531c0.004-0.443,0.077-1.374,0.262-2.12c0.037-0.147,0.299-0.705,1-1.339
				c0.335-0.267,0.979-0.608,2.652-0.608c1.562,0,2.646,0.28,3.28,0.515c0.675,0.25,0.994,0.503,0.998,0.506
				C78.708,9.708,78.7,9.7,78.7,9.7l0.001-0.001c0.253,0.193,0.568,0.31,0.911,0.31c0.83,0,1.502-0.672,1.502-1.502
				C81.113,8.095,80.947,7.722,80.679,7.451"/>
			<path id="Fill-62" fill="#94D41C" d="M128.711,19.156c-0.154,0-0.305,0.025-0.445,0.068c-0.063,0.021-0.191,0.069-0.256,0.094
				c-0.295,0.112-1.241,0.403-2.856,0.266c-1.229-0.228-2.105-0.76-2.607-1.584c-0.366-0.602-0.423-1.18-0.43-1.27V1.502
				c0-0.83-0.673-1.502-1.502-1.502c-0.83,0-1.502,0.672-1.502,1.502v15.264l0,0.027c0.029,1.659,1.234,4.999,5.582,5.761
				l0.061,0.011l0.062,0.006c0.415,0.037,0.802,0.054,1.163,0.054c1.598,0,2.663-0.323,3.19-0.535
				c0.102-0.032,0.198-0.077,0.288-0.129c0.039-0.019,0.129-0.082,0.153-0.101c0.364-0.273,0.601-0.709,0.601-1.201
				C130.213,19.83,129.541,19.156,128.711,19.156"/>
		</g>
	</g>
</g>
</svg>
