<?xml version="1.0" encoding="utf-8"?>
<!-- Generator: Adobe Illustrator 16.0.0, SVG Export Plug-In . SVG Version: 6.00 Build 0)  -->
<!DOCTYPE svg PUBLIC "-//W3C//DTD SVG 1.1//EN" "http://www.w3.org/Graphics/SVG/1.1/DTD/svg11.dtd">
<svg version="1.1" id="Layer_1" xmlns="http://www.w3.org/2000/svg" xmlns:xlink="http://www.w3.org/1999/xlink" x="0px" y="0px"
	 width="371.981px" height="88.496px" viewBox="0 0 371.981 88.496" enable-background="new 0 0 371.981 88.496"
	 xml:space="preserve">
<g>
	<defs>
		<path id="SVGID_1_" d="M185.542,68.807v0.072l0.011,0.02v-0.092H185.542z M346.507,55.98l9.737,13.389V53.152L346.507,55.98z
			 M88.367,25.99c0.49,12.45,2.538,24.512,5.959,36.009V25.99H88.367z M97.083,47.97v0.163c0,12.407,9.733,22.789,22.954,22.789
			c9.652,0,15.49-4.055,19.543-10.057l-10.298-7.461c-2.435,2.838-4.786,4.541-8.436,4.541c-5.19,0-8.759-4.299-8.759-9.975v-0.162
			c0-5.353,3.65-9.732,8.596-9.732c3.731,0,6.084,1.703,8.194,4.623l10.461-7.787c-3.729-5.92-9.732-9.813-18.735-9.813
			C106.733,25.099,97.083,35.563,97.083,47.97 M279.529,45.443h12.682c5.572,0,8.142,2.143,8.142,5.399v0.174
			c0,3.511-2.913,5.483-7.969,5.483h-12.854V45.443z M247.765,29.162l6.683,17.053h-13.453L247.765,29.162z M279.529,21.756h10.798
			c4.97,0,7.54,2.63,7.54,5.888v0.918c0,3.514-2.826,5.228-7.884,5.228h-10.454V21.756z M239.882,9.453l-19.38,45.846h-18.323V9.883
			h-16.624V25.99h-17.266l-11.922,14.682V9.496h-15.41v72.606h15.41V59.566l3.975-4.621l8.838,14.924h16.363v-0.99l-15.064-25.288
			l15.077-17.404V68.9l-0.002-0.001v0.97h0.578l-0.002-0.002h28.216h16.884h0.599l4.285-10.711h23.136l4.086,10.012l0.283,0.699
			h17.827h12.824c14.31,0,22.71-6.256,22.71-16.539v-0.172c0-8.141-4.628-12.254-11.914-14.654
			c5.316-2.313,9.257-6.426,9.257-13.368v-0.17c0-4.115-1.457-7.284-3.855-9.683c-3.515-3.514-8.826-5.398-16.369-5.398h-30.763
			v17.14l-7.428-17.57H239.882z M307.685,9.441l48.56,33.465V9.441H307.685z M88.64,9.433c-0.257,3.538-0.387,7.107-0.387,10.709
			c0,0.624,0.004,1.253,0.012,1.875h6.387V9.433H88.64z"/>
	</defs>
	<clipPath id="SVGID_2_">
		<use xlink:href="#SVGID_1_"  overflow="visible"/>
	</clipPath>
	
		<radialGradient id="SVGID_3_" cx="-235.5996" cy="485.8999" r="1" gradientTransform="matrix(152.7769 0 0 -152.7769 36237.4609 74254.4453)" gradientUnits="userSpaceOnUse">
		<stop  offset="0" style="stop-color:#EF4123"/>
		<stop  offset="0.1992" style="stop-color:#EB4024"/>
		<stop  offset="0.3908" style="stop-color:#E03C26"/>
		<stop  offset="0.5795" style="stop-color:#CC3629"/>
		<stop  offset="0.7651" style="stop-color:#B12D2E"/>
		<stop  offset="0.8876" style="stop-color:#9B2632"/>
		<stop  offset="1" style="stop-color:#9B2632"/>
	</radialGradient>
	<rect x="88.252" y="9.433" clip-path="url(#SVGID_2_)" fill="url(#SVGID_3_)" width="267.992" height="72.669"/>
</g>
<polygon fill="#941B1F" points="220.536,55.283 214.378,69.851 231.261,69.851 231.261,55.283 "/>
<polygon fill="#941B1F" points="263.365,69.154 263.65,69.851 281.475,69.851 263.365,27.009 "/>
<g>
	<defs>
		<path id="SVGID_4_" d="M78.919,69.919h15.411V26.04H78.919V69.919z M14.447,48.021v0.162c0,12.408,9.733,22.789,22.954,22.789
			c9.65,0,15.49-4.054,19.545-10.056l-10.3-7.461c-2.432,2.837-4.785,4.541-8.435,4.541c-5.19,0-8.759-4.299-8.759-9.975v-0.162
			c0-5.354,3.65-9.732,8.597-9.732c3.731,0,6.084,1.702,8.191,4.623l10.462-7.788c-3.73-5.919-9.732-9.812-18.734-9.812
			C24.1,25.15,14.447,35.613,14.447,48.021 M97.085,48.021v0.162c0,12.408,9.733,22.789,22.953,22.789
			c9.652,0,15.49-4.054,19.545-10.056l-10.3-7.461c-2.433,2.837-4.784,4.541-8.434,4.541c-5.192,0-8.759-4.299-8.759-9.975v-0.162
			c0-5.354,3.649-9.732,8.595-9.732c3.731,0,6.084,1.702,8.193,4.623l10.462-7.788c-3.73-5.919-9.732-9.812-18.735-9.812
			C106.736,25.15,97.085,35.613,97.085,48.021 M58.647,69.919h15.408V9.496H58.647V69.919z M140.96,9.496v72.609h15.409V59.617
			l3.974-4.622l8.839,14.924h16.952L170.48,43.642l15.248-17.601h-17.438l-11.921,14.681V9.496H140.96z M78.594,22.068h16.06V9.433
			h-16.06V22.068z"/>
	</defs>
	<clipPath id="SVGID_5_">
		<use xlink:href="#SVGID_4_"  overflow="visible"/>
	</clipPath>
	
		<radialGradient id="SVGID_6_" cx="-235.5996" cy="485.8999" r="1" gradientTransform="matrix(171.3737 0 0 -171.3737 40535.2266 83270.4922)" gradientUnits="userSpaceOnUse">
		<stop  offset="0" style="stop-color:#939598"/>
		<stop  offset="1" style="stop-color:#414042"/>
	</radialGradient>
	<rect x="14.447" y="9.433" clip-path="url(#SVGID_5_)" fill="url(#SVGID_6_)" width="171.688" height="72.672"/>
</g>
</svg>
